<?xml version="1.0" encoding="UTF-8"?>
<svg id="Layer_1" xmlns="http://www.w3.org/2000/svg" version="1.1" viewBox="0 0 512 512">
  <!-- Generator: Adobe Illustrator 30.8.1, SVG Export Plug-In . SVG Version: 2.1.4 Build 1)  -->
  <defs>
    <style>
      .st0 {
        fill: #cdfa4f;
      }

      .st1 {
        fill: #1a1a1a;
      }
    </style>
  </defs>
  <rect class="st1" x="-35.76" y="-15.25" width="571.63" height="540.73"/>
  <g>
    <path class="st0" d="M278.77,132.8c0,15.27-12.38,27.65-27.65,27.65-.65,0-1.3-.03-1.94-.07h0c-2.83-.2-5.55-.82-8.08-1.81-10.31-4.02-17.62-14.05-17.62-25.77,0-15.27,12.38-27.65,27.65-27.65s27.65,12.38,27.65,27.65Z"/>
    <path class="st0" d="M377.37,166.13c.09,6.03-1.36,11.42-3.99,15.26-.12.18-.24.36-.37.53h0c-.13.19-.25.36-.39.53-.08.11-.17.22-.26.32-3.09,3.82-7.94,6.52-13.56,7.27-4.74,8.28-16.65,14.53-30.58,14.81-6.85.14-13.2-1.24-18.46-3.66.71,6.07-1.51,14.49-6.98,22-5.92,8.13-13.28,13.75-19.13,15.13-.28,1.87-.61,3.78-1,5.71-1.01,5.07-2.38,10.34-4.01,15.76h0c5.33,5.04,10.68,11.73,15.32,19.46,10.09,16.79,12.03,34.73,7.17,43.19,4.52,2.58,8.83,7.75,11.49,14.42.68,1.7,1.21,3.39,1.6,5.06.03.12.06.24.09.37.11.51.21,1.02.3,1.52l.2,1.32c1.11,7.6,1.59,21.61,1.62,29.78,7.51,5.98,27.21,14.56,28.19,20.44l-.03.05c.28.69.43,1.42.43,2.18,0,3.45-3.1,6.31-7.15,6.8h-.01c-5.07.9-25.59.23-36.36-1.63h0c-4.22-.38-7.51-3.31-7.51-6.86,0-.21.01-.42.04-.63v-.05s-.01-.02,0-.03c-.4-3.88,4.44-12.06,4.13-15.61-1.1-6.57-5.16-13.14-12.71-19.72-.03-.02-.05-.05-.08-.07-4.21-2.86-7.37-8.47-8.03-15.16-.53-5.39.67-10.4,3.02-14.05-6.67-3.77-13.86-11.7-20.32-19.86-2.12-2.57-3.96-5.84-5.26-9.59-1.09-3.14-1.67-6.26-1.77-9.15,1.05-1.05,1.98-2.14,2.79-3.25,1.03-1.43,1.84-2.9,2.43-4.37-.81.53-1.71,1.04-2.68,1.49-.25.12-.51.23-.76.34-.49.21-.97.39-1.44.55-2.24.78-4.34,1.08-5.94.9.48,2.85.25,5.88-.52,8.96-3.33,13.48-16.86,28.07-26.35,33.94,1.61,3.06,2.57,6.85,2.57,10.97,0,5.12-1.48,9.75-3.86,13.07-3.72,7.44-11.72,7.81-17.03,23.04h.02c-1.43,4.55,3.51,12.47,3.15,17.24.29,3.03-2.09,6.09-5.72,7.12-.6.17-1.2.28-1.79.32-8.12,2-26.84,3.85-37.35,2.08-.48-.08-.94-.16-1.38-.26-2.34-.79-4.04-3.16-4.04-5.97,0-1.08.25-2.09.69-2.97,0-.01.01-.03.02-.04,1.46-4.16,15.23-11.76,23.94-17.03,1.16-.63,2.19-1.74,3.03-3.18,1.32-2.31,2.14-5.48,2.14-8.98,0-.6-.02-1.2-.08-1.78-.13-4.29-.56-8.28-.54-11.57-.06-.59-.1-1.19-.12-1.8-.13-3.63.42-7.61,1.72-11.61,2.61-8.06,7.64-14.23,13-16.81-4.74-20.32,1.95-40.97,23.14-62.01-1.29-3.93-2.45-8.02-3.47-12.25-.76-3.11-1.44-6.29-2.06-9.56-4.24-1.25-9.04-4.34-13.48-8.81-1.39-1.41-2.75-2.95-4.05-4.62-6.02-7.75-9.11-16.18-8.66-22.18v-.02c.03-.1.04-.2.04-.31,0-.01,0-.02-.01-.03h0s0-.02,0-.03c-.02-.73-.62-1.31-1.36-1.31-.28,0-.54.09-.76.23-.02.02-.04.03-.06.04-4.95,3.4-14.11,4.61-24.04,2.66-11.3-2.22-20.14-7.86-22.33-13.67-1.26-.4-2.55-.88-3.83-1.46-1.45-.65-2.81-1.37-4.08-2.15-2.03-1.25-3.81-2.64-5.26-4.08-.78-.77-1.46-1.56-2.04-2.34-.85-1.32-1.58-2.79-2.17-4.38-1.07-2.86-1.67-6.09-1.67-9.52,0-.53.01-1.06.05-1.58-.01-.02-.01-.04,0-.05-.05-3.16.44-6.54,1.54-9.91.2-.6.41-1.2.64-1.78.02-.03.03-.06.04-.09.98-2.06,2.11-4.15,3.37-6.24.02-.02.03-.04.05-.07.02-.03.03-.05.05-.08.51-.85,1.06-1.71,1.63-2.56,5.54-8.3,12.19-14.66,18.32-18.08.33-.72.73-1.44,1.21-2.15.86-1.29,1.85-2.38,2.87-3.22h.01c2.12-2.87,5.98-5.81,10.81-7.99,2.1-.95,4.19-1.66,6.17-2.13.02-.02.04-.02.06-.02,2.06-.65,4.37-1.12,6.82-1.37,2.55-.26,5-.25,7.22,0,.2.02.39.04.58.07.09.01.19.02.28.04,1.63.34,3.07,1.37,4.11,2.83,1.29,1.19,2.52,3.55,3.67,7.07.58,1.76,1.15,3.82,1.7,6.17.02.07.03.14.05.21.1.45.15.91.15,1.38,0,2.2-1.09,4.15-2.77,5.33-.04.03-.07.06-.11.08-.72.56-1.56.85-2.41,1.08-2.35.64-5.04,1.06-7.39,1.28-1.42.14-2.72.2-3.74.2h-.23c-3.69-.04-6.95-2.02-8.92-5.04-.75.7-1.48,1.5-2.18,2.4-1.56,2.04-2.95,4.58-3.98,7.45-.09.26-.18.52-.27.79-.04.12-.08.23-.11.35.99,2.5,1.3,5.86.86,9.58-.19,1.67-.54,3.41-1.04,5.18-.13.43-.26.87-.4,1.3-.2.59-.41,1.18-.62,1.75t-.01.02c-.5,1.3-1.07,2.53-1.68,3.67h0c-1.47,2.75-3.23,5.01-5.06,6.6-.41.36-.82.68-1.23.96-1.3.9-2.61,1.45-3.88,1.59-.39.05-.77.05-1.15.01-.23-.02-.47-.05-.7-.11.29.09.58.15.87.2h.01c.26.04.52.07.78.09,1.07.08,2.17-.04,3.26-.35.62-.17,1.23-.4,1.84-.69h.01c1.35-.63,2.66-1.53,3.89-2.67.62-.55,1.22-1.18,1.78-1.86,1.52-1.79,2.84-3.94,3.85-6.38h0c.37-.23.76-.45,1.16-.64,2.56-1.25,5.64-1.88,8.92-1.75,1.55.06,3.13.3,4.73.71,6.16,1.61,10.89,5.57,12.81,10.15.06-2.16-.85-4.37-2.5-6.36,13.31-9.33,31.62-5.94,39.1,6.85l.06.1c.96-.22,1.96-.4,2.98-.52,1.49-.21,3.05-.31,4.64-.31,4.69,0,9.04.9,12.62,2.43.53.51,1.05,1.05,1.55,1.62,1.51,1.69,2.92,3.63,4.16,5.77.41.7.78,1.41,1.13,2.12-.06-1.94-.31-3.81-.71-5.56-.32-1.37-.73-2.67-1.22-3.89,3.36-1.27,7.31-2,11.55-2,2.79,0,5.45.32,7.9.9,2.13-6.08,10.6-11.71,20.8-12.58.29-.03.57-.05.86-.06,6.79-.37,13.1,1.75,17.24,5.08-.3.79-.55,1.62-.75,2.46-.35,1.46-.56,2.98-.59,4.54.15-1.89.96-3.67,2.28-5.23.14-.17.3-.34.46-.51,3.25-3.44,9.06-5.73,15.68-5.73,2.68,0,5.23.38,7.52,1.05.47,1.13,1.01,2.21,1.63,3.23.35.59.73,1.15,1.13,1.7,1.21,1.67,2.64,3.17,4.23,4.48,1.2.99,2.49,1.86,3.86,2.61.02.01.04.02.05.02.59.33,1.2.63,1.82.9-.62-.45-1.23-.94-1.81-1.46h0c-1.93-1.71-3.64-3.77-5.07-6.1-.26-.44-.52-.89-.76-1.35-.2-.35-.38-.71-.55-1.08-.24-.46-.45-.93-.65-1.41-.96-2.26-1.67-4.71-2.08-7.3-.04-.24-.07-.48-.1-.72-.03-.17-.05-.33-.07-.5h0c-.19-1.61-.25-3.2-.2-4.75.07-1.94.32-3.83.73-5.64h0c-.2-.83-.45-1.66-.75-2.49-.06-.17-.13-.34-.19-.5-.41-1.03-.88-2-1.4-2.9-1.29-2.24-2.9-4.08-4.64-5.35-.02.08-.04.17-.07.26-.16.47-.4.97-.74,1.46-.02.04-.05.07-.08.1h0c-.22.31-.45.58-.69.81-1.81,1.92-4.65,2.55-8.11,2.4-.93-.02-1.91-.11-2.92-.26-2.33-.3-4.85-.85-7.47-1.52-.06-.02-.13-.03-.19-.05-2.9-.65-5.07-3.25-5.07-6.35,0-.73.12-1.43.34-2.08,1.08-5.31,3.16-10.2,6.12-13.06,1.15-1.48,2.92-2.45,4.94-2.51,5.72-1.06,12.14.78,18.74,3.35.16.06.33.13.49.19,2.36.92,4.91,2.38,7.43,4.32,1.35,1.04,2.7,2.22,4,3.52,1.29,1.29,2.46,2.63,3.5,3.97.4.52.78,1.05,1.14,1.57.29.41.56.82.82,1.23,2.57,1.6,5.15,3.57,7.64,5.85,3.11,2.86,5.73,5.93,7.77,8.97,3.19,3.68,5.81,8.57,7.37,14.2.88,3.2,1.34,6.38,1.42,9.41.01.16.01.33.01.49Z"/>
  </g>
</svg>